<?xml version="1.0" encoding="UTF-8" standalone="no"?>
<svg
   xmlns:dc="http://purl.org/dc/elements/1.1/"
   xmlns:cc="http://creativecommons.org/ns#"
   xmlns:rdf="http://www.w3.org/1999/02/22-rdf-syntax-ns#"
   xmlns:svg="http://www.w3.org/2000/svg"
   xmlns="http://www.w3.org/2000/svg"
   xmlns:sodipodi="http://sodipodi.sourceforge.net/DTD/sodipodi-0.dtd"
   xmlns:inkscape="http://www.inkscape.org/namespaces/inkscape"
   version="1.1"
   id="svg1098"
   xml:space="preserve"
   width="2758.3701"
   height="1904.7264"
   viewBox="0 0 2758.3702 1904.7264"
   sodipodi:docname="happy-money.svg"
   inkscape:version="1.0.2 (e86c870879, 2021-01-15)"><metadata
     id="metadata1104"><rdf:RDF><cc:Work
         rdf:about=""><dc:format>image/svg+xml</dc:format><dc:type
           rdf:resource="http://purl.org/dc/dcmitype/StillImage" /><dc:title /></cc:Work></rdf:RDF></metadata><defs
     id="defs1102" /><sodipodi:namedview
     pagecolor="#ffffff"
     bordercolor="#666666"
     borderopacity="1"
     objecttolerance="10"
     gridtolerance="10"
     guidetolerance="10"
     inkscape:pageopacity="0"
     inkscape:pageshadow="2"
     inkscape:window-width="1600"
     inkscape:window-height="871"
     id="namedview1100"
     showgrid="false"
     inkscape:zoom="0.20587499"
     inkscape:cx="667.59185"
     inkscape:cy="952.36641"
     inkscape:window-x="0"
     inkscape:window-y="0"
     inkscape:window-maximized="1"
     inkscape:current-layer="g1106"
     inkscape:document-rotation="0" /><g
     id="g1106"
     inkscape:groupmode="layer"
     inkscape:label="ink_ext_XXXXXX"
     transform="matrix(1.3333333,0,0,-1.3333333,-487.47795,2285.6997)"><g
       id="g1108"
       transform="matrix(0.1,0,0,0.1,-1.2082742e-5,-1.3272366e-5)"><path
         d="m 19807.1,4656.7 c -304.6,254.8 -460.8,490.6 -489,535.3 l 1071.4,676.8 c 0,0 -1.5,2.5 -4.6,7.1 0.9,-1.3 90.1,-132.6 268.5,-274.2 227.8,-180.7 492.6,-296.1 787,-343 374.7,-59.6 761.3,65.3 1019.7,180.6 288,128.6 481.1,272.6 482.9,274 l 950,-183.6 -178.5,-821.8 c -371.2,-284.9 -961.3,-566.4 -1508.2,-674.9 -907.4,-180.1 -1773.7,100.5 -2399.2,623.7"
         style="fill:#b75742;fill-opacity:1;fill-rule:nonzero;stroke:none"
         id="path1112" /><path
         d="m 21357.4,13573.2 251.5,130.3 249.9,-133.2 c 28.5,-15.2 62,8.8 56.7,40.6 l -46.2,279.5 203.9,196.5 c 23.3,22.4 10.7,61.7 -21.1,66.5 l -280.1,42.4 -123.9,254.7 c -14.1,29 -55.3,29.2 -69.8,0.4 l -126.8,-253.3 -280.5,-39.1 c -32,-4.4 -44.9,-43.6 -22,-66.2 l 201.7,-198.9 -49.5,-278.9 c -5.6,-31.7 27.6,-56.2 56.2,-41.3"
         style="fill:#86b1f2;fill-opacity:1;fill-rule:nonzero;stroke:none"
         id="path1114" /><path
         d="M 20830.1,8456.6 H 8457.45 V 7161.5 H 20830.1 v 1295.1"
         style="fill:#f47257;fill-opacity:1;fill-rule:nonzero;stroke:none"
         id="path1116" /><path
         d="m 17539.1,3872.7 c -2790,1475.2 -5820.5,2383.2 -8931.74,2676.2 115.28,1350 230.55,2700 345.82,4050 C 12550.5,10260.2 16054.4,9210.3 19280.3,7504.6 18699.9,6293.9 18119.5,5083.3 17539.1,3872.7"
         style="fill:#3c8f7c;fill-opacity:1;fill-rule:nonzero;stroke:none"
         id="path1118" /><path
         d="m 8881.63,7289.4 c 78.56,842 157.11,1683.9 235.66,2525.9 326.96,-33.6 619.88,177.4 655.48,479.9 2999.03,-376.7 5921.93,-1252.5 8658.73,-2594.5 -121.7,-276.6 21.1,-618.2 315.6,-770.9 -356.3,-758.7 -712.6,-1517.4 -1068.9,-2276.2 -271.1,140.6 -591.9,24.4 -713.5,-252.1 -2403.3,1178.5 -4970,1947.6 -7603.66,2278.4 35.59,302.2 -178.54,578.6 -479.41,609.5"
         style="fill:#96d9c9;fill-opacity:1;fill-rule:nonzero;stroke:none"
         id="path1120" /><path
         d="m 15319.9,7150.5 c -251.5,-724.3 -1027.1,-1093.2 -1746.4,-872.1 -718.9,222.9 -1180.8,973.8 -1019.2,1725.7 161.2,750.7 959.2,1200.5 1768.1,950.3 809.2,-249.3 1248.7,-1081 997.5,-1803.9"
         style="fill:#50bfa5;fill-opacity:1;fill-rule:nonzero;stroke:none"
         id="path1122" /><path
         d="m 13567.5,6533.4 c 20.1,80.8 40.2,161.6 60.2,242.5 -108.3,35.2 -211,84.8 -293.2,137.3 -68.5,43.7 -93.4,132.5 -56.4,203.2 1.5,2.8 3,5.6 4.5,8.5 40.8,77.8 141.1,102.8 216.9,52.9 77.1,-50.7 167.8,-96.2 268.8,-124.4 146.9,-41.1 261.8,-14.6 288.4,87.2 25.1,96.6 -41.8,182.4 -219.6,300.3 -257,169.8 -421.1,346.9 -364.4,596 51.2,225.6 259.4,360.6 562.8,334.1 19.8,80.9 39.6,161.8 59.5,242.8 89.2,-24.7 178.3,-49.9 267.3,-75.6 -19.1,-74.7 -38.2,-149.5 -57.3,-224.2 97.2,-32.5 174.6,-68.7 237.5,-105.8 76.8,-45.3 103.9,-139.9 61.9,-211.3 v 0 c -43.5,-73.7 -143.3,-94.8 -220.7,-46.7 -58.1,36.1 -132.1,72.9 -226.6,99.9 -174.1,49.4 -248,-7.2 -265.4,-78.6 -20.7,-84.5 59.9,-163.1 263.4,-309.3 286.5,-198.2 372.2,-377.6 309.3,-605.3 -62.7,-225.7 -276.6,-367.3 -582.2,-333.7 -22.3,-86.6 -44.7,-173.2 -67.1,-259.7 -82.5,23.7 -165,47 -247.6,69.9"
         style="fill:#3c8f7c;fill-opacity:1;fill-rule:nonzero;stroke:none"
         id="path1124" /><path
         d="m 12128.3,8032.2 c -711.1,164.1 -1429.1,297.8 -2152.13,400.5 16.73,129.8 33.43,259.6 50.13,389.4 733.2,-104.1 1461.2,-239.7 2182.3,-406.1 -26.8,-127.9 -53.5,-255.9 -80.3,-383.8"
         style="fill:#50bfa5;fill-opacity:1;fill-rule:nonzero;stroke:none"
         id="path1126" /><path
         d="m 17673.3,6063.3 c -661.8,323.6 -1335.2,618.2 -2018.3,883.3 43.2,122.9 86.5,245.8 129.7,368.6 692.7,-268.8 1375.5,-567.5 2046.5,-895.7 -52.6,-118.7 -105.3,-237.5 -157.9,-356.2"
         style="fill:#50bfa5;fill-opacity:1;fill-rule:nonzero;stroke:none"
         id="path1128" /><path
         d="M 18842.8,8506.3 C 15964.2,7904.9 13223,6699.7 10763.7,4954.1 10099.2,6100.8 9434.74,7247.3 8770.25,8393.9 c 2843.55,2018.3 6012.95,3411.8 9341.25,4107.2 243.8,-1331.6 487.6,-2663.2 731.3,-3994.8"
         style="fill:#3c8f7c;fill-opacity:1;fill-rule:nonzero;stroke:none"
         id="path1130" /><path
         d="m 10555,5717.3 c -409.5,719.3 -818.97,1438.6 -1228.47,2158 259.95,181.2 359.03,535.2 217.38,798.3 2422.99,1607.7 5066.79,2770.2 7832.09,3443.6 63.8,-297.3 358.8,-478 661.1,-412.1 158.2,-829.8 316.5,-1659.6 474.8,-2489.4 -278.2,-60.7 -450.5,-357.1 -386.8,-654.2 -2428.3,-591.4 -4750,-1612.2 -6877.7,-3024 -141.6,262.9 -453.1,346.6 -692.4,179.8"
         style="fill:#96d9c9;fill-opacity:1;fill-rule:nonzero;stroke:none"
         id="path1132" /><path
         d="m 15384.6,9701 c 216.5,-735.7 -151.1,-1522.2 -804.9,-1803.8 -654.3,-280 -1412.3,23.2 -1710.5,723.8 -297.8,699.3 41.5,1564.4 777.5,1879.9 735.8,316.4 1522,-65.4 1737.9,-799.9"
         style="fill:#50bfa5;fill-opacity:1;fill-rule:nonzero;stroke:none"
         id="path1134" /><path
         d="m 14433.7,8096 c -30,77.1 -60.1,154.1 -90.1,231.2 -99.6,-40.9 -202.9,-66.8 -292.7,-77.4 -74.9,-8.8 -142.6,46 -154.5,125.7 -0.5,3.2 -0.9,6.4 -1.4,9.6 -13.1,87.9 47.1,171.5 130.7,180.1 85.2,8.7 177.3,30.2 267.5,71.9 131.3,60.8 201.4,155 164.5,252.8 -35.1,92.8 -132.1,118.4 -328.8,99.1 -284,-28.4 -503.5,8.1 -600,242.1 -87.5,211.9 -8.7,451.7 229.9,623.5 -30.2,77 -60.5,153.9 -90.8,230.8 79.6,37.1 159.3,73.8 239.3,110 27.4,-71.6 54.8,-143.1 82.2,-214.7 89.8,36 167.1,56.4 234,66.9 81.9,12.8 154.4,-45.2 163,-128.6 v 0 c 8.8,-86.3 -53.1,-166.5 -136.9,-177.5 -63,-8.2 -138,-26 -222.7,-64.7 -156.1,-71.4 -179.2,-163.4 -152.3,-231.2 31.6,-80.4 134.7,-91.6 366.1,-78.4 321.6,24.6 484.5,-63.6 564.4,-284.6 79,-219.3 -0.2,-467.9 -244.4,-635.5 31.6,-83.1 63.1,-166.1 94.6,-249.2 -74,-33.6 -147.9,-67.5 -221.6,-101.9"
         style="fill:#3c8f7c;fill-opacity:1;fill-rule:nonzero;stroke:none"
         id="path1136" /><path
         d="m 12539.2,8372.5 c -616.1,-321.8 -1220.3,-672.1 -1811,-1050.2 -59.8,113.8 -119.5,227.6 -179.2,341.5 599,383.4 1211.7,738.6 1836.4,1064.8 51.2,-118.7 102.5,-237.4 153.8,-356.1"
         style="fill:#50bfa5;fill-opacity:1;fill-rule:nonzero;stroke:none"
         id="path1138" /><path
         d="m 17725.5,10333.3 c -668.2,-163.6 -1328.8,-357.5 -1980.3,-581.2 -36.3,125.2 -72.6,250.3 -108.9,375.5 660.6,226.8 1330.5,423.5 2008,589.3 27.1,-127.9 54.1,-255.8 81.2,-383.6"
         style="fill:#50bfa5;fill-opacity:1;fill-rule:nonzero;stroke:none"
         id="path1140" /><path
         d="m 19302.1,5989.9 c -2993.7,181.5 -5991.8,-257.9 -8836.4,-1295 -391.6,1285.9 -783.25,2571.8 -1174.9,3857.7 3289,1199.1 6755.5,1707.2 10216.9,1497.4 -68.5,-1353.4 -137,-2706.7 -205.6,-4060.1"
         style="fill:#3c8f7c;fill-opacity:1;fill-rule:nonzero;stroke:none"
         id="path1142" /><path
         d="m 10436.6,5488.7 c -238.4,804.8 -476.78,1609.6 -715.17,2414.3 299.97,106.5 480.57,422.9 401.47,715.1 2776.4,913.3 5668.1,1337.1 8566.3,1255.5 -6.1,-304.7 244.3,-557.9 559.3,-574.2 -36.4,-845.1 -72.8,-1690.1 -109.2,-2535.2 -289.9,15.1 -529.7,-226.1 -535.7,-530.5 -2545.1,71.7 -5084.4,-300.5 -7522.5,-1102.5 -79.1,291.9 -368.5,455.5 -644.5,357.5"
         style="fill:#96d9c9;fill-opacity:1;fill-rule:nonzero;stroke:none"
         id="path1144" /><path
         d="m 16152.2,8063.3 c 43.3,-769.4 -504.3,-1433.1 -1218,-1532.3 -713.9,-97.4 -1394.7,397.1 -1527.1,1154.2 -132.3,755.8 405.5,1503 1208.7,1613.2 803,111 1493.5,-467 1536.4,-1235.1"
         style="fill:#50bfa5;fill-opacity:1;fill-rule:nonzero;stroke:none"
         id="path1146" /><path
         d="m 14835.8,6762.2 c -11.9,82.5 -23.7,165.1 -35.6,247.6 -108.2,-13.2 -216.6,-10.8 -308.1,2.8 -76.3,11.3 -130.7,82.3 -123.9,162.6 0.3,3.2 0.5,6.4 0.8,9.7 7.5,88.5 86.7,153.5 171.6,139.5 86.4,-14.1 182.8,-17.7 281.9,-1.2 144.3,23.9 235.7,96.5 221.9,201 -13.2,99 -103.4,149.6 -302.9,183.1 -288.1,47.8 -497.2,141.3 -538.3,393.4 -37.4,228.3 96.5,439.4 373.1,542.5 -12,82.4 -24.1,164.9 -36.3,247.4 87.6,14.8 175.2,29.1 262.8,43 10.6,-76.6 21.1,-153.1 31.6,-229.6 97.4,11 178.7,10.3 247.5,2.7 84.2,-9.3 142.6,-84.7 131.7,-167.7 v 0 c -11.4,-85.9 -91.4,-147.1 -177.2,-135.5 -64.3,8.8 -142.8,11.4 -235.8,-3.5 -171.3,-27.8 -215.6,-110.6 -204.8,-183.4 12.6,-86.2 112.2,-124.4 344.7,-173 324.5,-61.5 465.5,-190 493.2,-425.1 27.2,-233.2 -109.2,-452.7 -390.3,-550.2 11.9,-88.8 23.8,-177.5 35.7,-266.3 -81.2,-12.8 -162.3,-26.1 -243.3,-39.8"
         style="fill:#3c8f7c;fill-opacity:1;fill-rule:nonzero;stroke:none"
         id="path1148" /><path
         d="m 13022,7532.2 c -685.6,-148 -1366.2,-326.8 -2039.9,-536 -32.7,126 -65.4,252 -98.1,378 683.2,212.2 1373.2,393.4 2068.5,543.5 23.2,-128.5 46.3,-257 69.5,-385.5"
         style="fill:#50bfa5;fill-opacity:1;fill-rule:nonzero;stroke:none"
         id="path1150" /><path
         d="m 18620.1,8054.3 c -700.5,19 -1400.6,6.5 -2098.5,-37.2 -6.8,130.8 -13.7,261.5 -20.5,392.3 707.7,44.3 1417.5,57 2127.8,37.8 -2.9,-131 -5.9,-261.9 -8.8,-392.9"
         style="fill:#50bfa5;fill-opacity:1;fill-rule:nonzero;stroke:none"
         id="path1152" /><path
         d="M 8457.45,8456.6 V 3011.3 H 20830.1 V 8456.6 H 8457.45"
         style="fill:#f47257;fill-opacity:1;fill-rule:nonzero;stroke:none"
         id="path1154" /><path
         d="m 20830.1,4401.5 h -3061.6 c -135.7,0 -245.8,-115.2 -245.8,-257.3 v 0 c 0,-142.2 110.1,-257.4 245.8,-257.4 h -397 c -135.7,0 -245.8,-115.2 -245.8,-257.4 v 0 c 0,-142.1 110.1,-257.4 245.8,-257.4 h 68.8 c -135.7,0 -245.8,-115.2 -245.8,-257.3 0,-36.8 7.4,-71.7 20.7,-103.4 h 3614.9 v 1390.2"
         style="fill:#b75742;fill-opacity:1;fill-rule:nonzero;stroke:none"
         id="path1156" /><path
         d="M 20176.5,7765.6 H 8913.4 v 422.9 h 11263.1 v -422.9"
         style="fill:#b75742;fill-opacity:1;fill-rule:nonzero;stroke:none"
         id="path1158" /><path
         d="M 13819.7,3078.9 H 8736.96 c -229.58,0 -415.69,186.1 -415.69,415.7 V 6045 c 0,229.6 186.11,415.7 415.69,415.7 h 5082.74 c 229.6,0 415.7,-186.1 415.7,-415.7 V 3494.6 c 0,-229.6 -186.1,-415.7 -415.7,-415.7"
         style="fill:#3c8f7c;fill-opacity:1;fill-rule:nonzero;stroke:none"
         id="path1160" /><path
         d="M 10157.9,4941.4 H 8701.51 v 846.8 h 1456.39 v -846.8"
         style="fill:#f7cc7f;fill-opacity:1;fill-rule:nonzero;stroke:none"
         id="path1162" /><path
         d="m 13861,5844.6 h -2582.7 v 158.1 H 13861 v -158.1"
         style="fill:#f7cc7f;fill-opacity:1;fill-rule:nonzero;stroke:none"
         id="path1164" /><path
         d="M 13669.1,4001 H 8916.03 v 195.3 H 13669.1 V 4001"
         style="fill:#f7cc7f;fill-opacity:1;fill-rule:nonzero;stroke:none"
         id="path1166" /><path
         d="M 13669.1,3541.2 H 8916.03 v 195.3 h 4753.07 v -195.3"
         style="fill:#f7cc7f;fill-opacity:1;fill-rule:nonzero;stroke:none"
         id="path1168" /><path
         d="M 14308,6926 H 9056.46 v 140.3 H 14308 V 6926"
         style="fill:#b75742;fill-opacity:1;fill-rule:nonzero;stroke:none"
         id="path1170" /><path
         d="m 18271.3,9814.5 c 371.1,-528.7 243.3,-1258.2 -285.5,-1629.2 -528.7,-371.1 -1258.1,-243.3 -1629.1,285.4 -371.1,528.7 -243.3,1258.2 285.4,1629.2 528.7,371.1 1258.1,243.3 1629.2,-285.4"
         style="fill:#fae0b2;fill-opacity:1;fill-rule:nonzero;stroke:none"
         id="path1172" /><path
         d="m 18117.3,9706.4 c 311.4,-443.7 204.1,-1055.7 -239.5,-1367.1 -443.7,-311.4 -1055.8,-204.1 -1367.1,239.5 -311.4,443.7 -204.2,1055.8 239.5,1367.1 443.6,311.4 1055.7,204.2 1367.1,-239.5"
         style="fill:#f7cc7f;fill-opacity:1;fill-rule:nonzero;stroke:none"
         id="path1174" /><path
         d="m 17427.3,8452.2 -42.8,158.2 c -72.3,-16.1 -146.1,-21.6 -209,-18.4 -52.5,2.8 -93.8,45.8 -94.5,98.3 l -0.1,6.4 c -0.7,57.9 47.9,104.6 105.7,100.8 58.9,-3.8 123.8,0.1 189,17.7 94.8,25.7 149.9,79.9 131.9,146.5 -17.1,63.2 -81.2,88.8 -215.7,97.1 -194.3,11.8 -338.4,62.1 -382,223.6 -39.7,146.5 32.5,289.3 201.2,372.5 l -42.8,158.1 163.2,44.1 39.6,-146.5 c 61.3,13.7 113.2,19 157.8,19.2 54.5,0.2 98.9,-43.9 99.6,-98.5 v 0 c 0.7,-56.3 -45.4,-102.2 -101.7,-100.9 -42.3,0.9 -93.1,-2.9 -151.9,-18.8 -108.2,-29.3 -130.6,-85.4 -118,-132 14.9,-54.9 82.6,-74.1 238.5,-89.1 217.1,-16.4 321.7,-86.3 362.2,-236.2 40.1,-148.1 -30.5,-303 -213,-388.1 l 45.9,-169.8 -163.1,-44.2"
         style="fill:#ffffff;fill-opacity:1;fill-rule:nonzero;stroke:none"
         id="path1176" /><path
         d="m 19374.7,6071.3 c 371.1,-528.7 243.3,-1258.1 -285.5,-1629.2 -528.7,-371 -1258.1,-243.2 -1629.1,285.5 -371.1,528.7 -243.3,1258.1 285.4,1629.2 528.7,371 1258.1,243.2 1629.2,-285.5"
         style="fill:#fae0b2;fill-opacity:1;fill-rule:nonzero;stroke:none"
         id="path1178" /><path
         d="m 19220.7,5963.2 c 311.4,-443.6 204.1,-1055.7 -239.5,-1367.1 -443.7,-311.4 -1055.8,-204.1 -1367.1,239.6 -311.4,443.6 -204.2,1055.7 239.5,1367.1 443.6,311.3 1055.7,204.1 1367.1,-239.6"
         style="fill:#f7cc7f;fill-opacity:1;fill-rule:nonzero;stroke:none"
         id="path1180" /><path
         d="m 18530.7,4709.1 -42.8,158.2 c -72.3,-16.2 -146.1,-21.7 -209,-18.4 -52.5,2.7 -93.8,45.7 -94.5,98.3 l -0.1,6.3 c -0.7,57.9 47.9,104.6 105.7,100.9 58.9,-3.9 123.8,0.1 189,17.7 94.9,25.6 149.9,79.8 131.9,146.4 -17.1,63.3 -81.2,88.8 -215.7,97.1 -194.3,11.8 -338.4,62.2 -382,223.7 -39.7,146.5 32.5,289.3 201.2,372.4 l -42.8,158.2 163.2,44.1 39.6,-146.5 c 61.3,13.6 113.2,19 157.8,19.1 54.6,0.2 98.9,-43.9 99.6,-98.4 v 0 c 0.7,-56.4 -45.4,-102.3 -101.7,-101 -42.3,1 -93.1,-2.9 -151.9,-18.8 -108.2,-29.3 -130.6,-85.3 -118,-131.9 14.9,-55 82.6,-74.2 238.5,-89.2 217.1,-16.3 321.7,-86.3 362.2,-236.1 40.1,-148.2 -30.5,-303.1 -213,-388.2 l 45.9,-169.8 -163.1,-44.1"
         style="fill:#ffffff;fill-opacity:1;fill-rule:nonzero;stroke:none"
         id="path1182" /><path
         d="m 17313.9,6863.7 c 0,-646 -523.6,-1169.6 -1169.6,-1169.6 -645.9,0 -1169.6,523.6 -1169.6,1169.6 0,645.9 523.7,1169.5 1169.6,1169.5 646,0 1169.6,-523.6 1169.6,-1169.5"
         style="fill:#fae0b2;fill-opacity:1;fill-rule:nonzero;stroke:none"
         id="path1184" /><path
         d="m 17125.7,6863.7 c 0,-542 -439.4,-981.5 -981.4,-981.5 -542,0 -981.4,439.5 -981.4,981.5 0,542 439.4,981.4 981.4,981.4 542,0 981.4,-439.4 981.4,-981.4"
         style="fill:#f7cc7f;fill-opacity:1;fill-rule:nonzero;stroke:none"
         id="path1186" /><path
         d="m 15840.5,6233.5 55.8,154.1 c -68.4,28.3 -132,66.1 -181.6,104.9 -41.4,32.4 -50.5,91.4 -20.9,134.8 l 3.6,5.2 c 32.6,47.9 99.3,58.2 144.4,21.9 46,-37 101.4,-71.1 164.9,-94.1 92.4,-33.5 168.6,-20.7 192.1,44.1 22.3,61.6 -15.5,119.4 -120.8,203.4 -152.3,121.3 -241.2,245.3 -184.2,402.5 51.7,142.7 192.8,218.1 378.6,189.3 l 55.9,154 158.9,-57.6 -51.8,-142.7 c 58,-24 103.6,-49.5 140.2,-75 44.8,-31.1 55.7,-92.7 25,-137.8 v 0 c -31.8,-46.5 -95.9,-57.6 -141.3,-24.2 -34,25.1 -77.9,51.1 -135.1,71.9 -105.4,38.2 -155.9,5.1 -172.4,-40.3 -19.3,-53.5 25,-108.1 144.1,-209.9 168.2,-138.1 213.7,-255.5 160.8,-401.4 -52.3,-144.3 -199.2,-230.5 -397.4,-195.3 l -59.9,-165.4 -158.9,57.6"
         style="fill:#ffffff;fill-opacity:1;fill-rule:nonzero;stroke:none"
         id="path1188" /><path
         d="m 20176.5,3350.4 h -5297.1 v 2838.8 h 5297.1 V 3350.4"
         style="fill:#f48c7f;fill-opacity:1;fill-rule:nonzero;stroke:none"
         id="path1190" /><path
         d="m 17522.7,4144.2 v 0 c 0,-142.2 110.1,-257.4 245.8,-257.4 h -397 c -135.7,0 -245.8,-115.2 -245.8,-257.4 v 0 c 0,-142.1 110.1,-257.4 245.8,-257.4 h 68.8 c -35.1,0 -68.5,-7.7 -98.8,-21.6 h 2835 v 1051.1 h -2408 c -135.7,0 -245.8,-115.2 -245.8,-257.3"
         style="fill:#b75742;fill-opacity:1;fill-rule:nonzero;stroke:none"
         id="path1192" /><path
         d="m 4127.09,3094.3 v 0 c 0,-45.8 34.49,-83 77.04,-83 H 23408.9 c 42.6,0 77.1,37.2 77.1,83 v 0 c 0,45.9 -34.5,83 -77.1,83 H 4204.13 c -42.55,0 -77.04,-37.1 -77.04,-83"
         style="fill:#13375b;fill-opacity:1;fill-rule:nonzero;stroke:none"
         id="path1194" /><path
         d="m 20861.1,2857.3 h -3161.6 c -126.9,0 -229.7,102.8 -229.7,229.7 v 0 c 0,126.8 102.8,229.7 229.7,229.7 h 3161.6 c 126.9,0 229.7,-102.9 229.7,-229.7 v 0 c 0,-126.9 -102.8,-229.7 -229.7,-229.7"
         style="fill:#f7cc7f;fill-opacity:1;fill-rule:nonzero;stroke:none"
         id="path1196" /><path
         d="m 20796.9,3316.7 h -3161.7 c -126.8,0 -229.7,102.8 -229.7,229.7 v 0 c 0,126.8 102.9,229.7 229.7,229.7 h 3161.7 c 126.8,0 229.7,-102.9 229.7,-229.7 v 0 c 0,-126.9 -102.9,-229.7 -229.7,-229.7"
         style="fill:#fae0b2;fill-opacity:1;fill-rule:nonzero;stroke:none"
         id="path1198" /><path
         d="m 21167.9,3776.1 h -3161.7 c -126.8,0 -229.7,102.8 -229.7,229.7 v 0 c 0,126.8 102.9,229.7 229.7,229.7 h 3161.7 c 126.8,0 229.7,-102.9 229.7,-229.7 v 0 c 0,-126.9 -102.9,-229.7 -229.7,-229.7"
         style="fill:#f7cc7f;fill-opacity:1;fill-rule:nonzero;stroke:none"
         id="path1200" /><path
         d="m 17146.5,13722.7 40.3,-272.1 -430.8,-113.2 9.8,-405.1 -308.5,-137.3 69.5,-156.2 412.6,183.7 -9.2,383.9 448.1,117.7 -60.6,409.5 -171.2,-10.9"
         style="fill:#466eb6;fill-opacity:1;fill-rule:nonzero;stroke:none"
         id="path1202" /><path
         d="m 13073.3,14584.2 83,206 c -91.4,41.7 -175.6,96 -241,150.9 -54.5,45.8 -64.1,126.1 -21.9,183.5 l 5.1,7 c 46.5,63.2 137.3,74 196.7,22.7 60.5,-52.4 134,-101.1 218.8,-135.3 123.6,-49.8 227.4,-36.2 262.3,50.5 33.2,82.4 -15.2,162.4 -153.8,281.3 -200.5,171.5 -315.1,343.7 -230.4,554 76.9,190.8 271.6,286.3 522,238.3 l 83,206 212.5,-85.7 -76.9,-190.7 c 77.4,-35.4 137.9,-72 186.3,-108.3 59.1,-44.4 71,-128.3 27.2,-187.9 v 0 c -45.3,-61.5 -132.6,-73.4 -192.5,-26 -44.9,35.6 -103.1,72.9 -179.6,103.8 -140.9,56.8 -210.9,14.4 -235.4,-46.3 -28.8,-71.6 28.7,-147.7 185.1,-291.3 221.3,-195 277.3,-356.2 198.7,-551.4 -77.8,-192.9 -280.8,-302.7 -547.6,-245.6 l -89.1,-221.1 -212.5,85.6"
         style="fill:#96d9c9;fill-opacity:1;fill-rule:nonzero;stroke:none"
         id="path1204" /><path
         d="m 13465.9,12386.2 c 21.7,-35.1 15.5,-80.7 -14.8,-108.7 -59.4,-55 -154.1,-119.3 -269.5,-162.6 -168.7,-63.3 -356,-69.4 -524.7,7.2 -105.5,47.9 -202,134.2 -270.1,245.7 l -99.7,-37.4 c -33.9,-12.7 -71.7,4.4 -84.4,38.3 l -1,2.6 c -12.7,33.9 4.5,71.6 38.3,84.4 l 81.9,30.7 c -13.2,27.1 -22.4,44.1 -28.2,59.4 -9.6,25.6 -18.6,57.2 -25.9,92.4 l -84.4,-31.7 c -33.8,-12.7 -71.6,4.4 -84.3,38.3 v 0 c -12.8,33.9 4.4,71.7 38.3,84.4 l 102.2,38.4 c -16,128.1 0.9,254 48.8,359.5 81.5,179.3 234.8,306.9 411.2,373.1 102.8,38.6 187.4,50 255.8,50.7 47.6,0.5 87,-36.7 89.3,-84.2 v -1.5 c 2.4,-49.3 -36.1,-90.5 -85.4,-92.5 -56,-2.2 -122.2,-13.4 -198.9,-42.2 -112.5,-42.2 -211.5,-120.2 -268.4,-240.7 -31.9,-70.4 -46.9,-154.7 -30,-238.8 l 575.2,215.9 c 33.9,12.7 71.7,-4.4 84.4,-38.3 v 0 c 12.7,-33.9 -4.4,-71.7 -38.3,-84.4 l -600.8,-225.4 c 8,-29.1 16,-58.2 22.7,-76.1 8.7,-23 17.3,-46 31.4,-75.7 l 602,225.9 c 34.6,13 73.2,-4.5 86.1,-39.1 v 0 c 13,-34.6 -4.5,-73.2 -39.1,-86.1 l -576.4,-216.4 c 45.7,-67.4 105.4,-117.9 168.7,-146.6 125.6,-55 241.3,-52.4 369.1,-4.4 78,29.2 142.8,69.4 192,108.2 40.5,32 99.8,21.6 126.9,-22.3 v 0"
         style="fill:#86b1f2;fill-opacity:1;fill-rule:nonzero;stroke:none"
         id="path1206" /><path
         d="m 11895.6,14436.5 -261.2,-26.5 -89,415.5 -386.6,8.3 -117.5,300 -151.9,-59.4 157.1,-401.3 366.4,-7.9 92.7,-432.3 392.9,39.9 -2.9,163.7"
         style="fill:#50bfa5;fill-opacity:1;fill-rule:nonzero;stroke:none"
         id="path1208" /><path
         d="m 14913.7,14747.2 279.4,-92.2 c 0,0 443,143.6 486.6,233.9 43.6,90.3 55.9,309.3 119,315.3 63,6 184.8,-14.5 213.8,-164.4 21.1,-108.9 -138.3,-423.4 -113.4,-456.9 15.6,-21 174.6,-78.5 291.5,-118.7 76.9,-26.4 132.3,-94 144.2,-175.7 v -0.2 c 8,-55.1 -23.3,-108.9 -74.9,-128.8 l -80.4,-31.1 25.7,-83 c 19.1,-61.7 -14.8,-128.1 -75.8,-148.6 l -62.2,-20.9 19.9,-50.5 c 25.6,-65.1 -10.5,-139 -77.4,-158.5 l -54.3,-15.7 2.2,-14.6 c 9.4,-60.4 -28.5,-118.5 -87.1,-133.9 l -54,-14.1 -744.1,245.6 c -69.7,23 -133.9,60.2 -188.6,109.5 l -247.1,130.4 c -26.6,14 -38.8,45.8 -28.8,74.6 l 229.1,659.8 c 11.1,31.8 45.2,49.1 76.7,38.7"
         style="fill:#fae0b2;fill-opacity:1;fill-rule:nonzero;stroke:none"
         id="path1210" /><path
         d="m 10493.8,11791.7 59.2,293.2 275,117.5 c 31.4,13.4 33.8,56.9 4.1,73.7 l -260.6,146.8 -26.7,297.9 c -3.1,34 -43.7,49.7 -68.8,26.6 l -220.2,-202.4 -291.62,66.6 c -33.21,7.6 -60.71,-26.2 -46.53,-57.2 l 124.45,-271.9 -153.45,-256.8 c -17.48,-29.2 6.16,-65.8 40,-61.9 l 297.15,34.3 196.7,-225.3 c 22.5,-25.6 64.6,-14.5 71.3,18.9"
         style="fill:#f7cc7f;fill-opacity:1;fill-rule:nonzero;stroke:none"
         id="path1212" /><path
         d="m 6904.17,4589.7 c 0,0 -366.64,-264.3 -424.38,-343.2 -83.16,-113.6 621.15,-326 544.29,-193 -17.68,30.6 -68.38,133.5 -70.59,143.6 -11.8,54.2 137.58,200 137.58,200 l -186.9,192.6"
         style="fill:#f7a491;fill-opacity:1;fill-rule:nonzero;stroke:none"
         id="path1214" /><path
         d="M 7214.58,3831.2 6965.62,4183 c 0,0 -155.44,36.2 -314.99,215.7 0,0 -143.39,-54.8 -231.61,-173.4 0,0 166.7,-179.6 423.46,-381.8 0,0 152.21,-134.8 362.61,-205.9 210.41,-71.1 9.49,193.6 9.49,193.6"
         style="fill:#f7cc7f;fill-opacity:1;fill-rule:nonzero;stroke:none"
         id="path1216" /><path
         d="m 3840.21,9407.2 c 0,0 45.06,-39.9 61.01,-52 18.7,-14.2 77.84,-52.6 77.84,-52.6 0,0 213.99,-121.7 221.24,-105.7 7.27,16 6.95,62.2 -3.63,74.3 -10.58,12.2 -41.4,24.7 -51.98,36.9 -10.57,12.1 -14.19,36.6 -0.58,50.2 13.61,13.6 86.74,-26.4 86.74,-26.4 0,0 59.24,-32.9 84,-72.6 85.81,-137.7 59.8,-145.7 71.27,-163.1 13.58,-20.6 313.71,-156.8 313.71,-156.8 0,0 897.35,-373.1 945.71,-393.4 h 0.61 c 6.55,-41.6 -15.69,-79.8 -27.11,-116.6 -21.45,-128.2 -59.61,-136.7 -88.71,-260.3 -137.64,69.6 -1090.38,594.5 -1187.23,649.2 0,0 -145.08,24.7 -235.76,43.3 -90.68,18.5 -169.7,75.9 -194.55,85 -3.67,1.3 -84.81,36.3 -174.01,105.4 -76.88,59.6 22.38,37.2 22.38,37.2 0,0 161.58,-85.7 165.76,-72.1 3.24,10.5 -87.61,52.2 -173.34,117.2 -22.04,16.8 -43.73,33.4 -63.54,48.8 -52.01,40.4 -42.92,82.8 18.01,48.9 21.52,-12 56.79,-32.7 79.95,-50.9 25.02,-19.8 54.16,-30.1 77.63,-43.5 46.62,-26.7 80.27,-46.8 80.28,-44.3 0,3.2 12.8,4.3 -10.07,22.7 -27.49,22.2 -95.98,56.9 -133.96,92.6 -21.52,20.2 -69.03,59.8 -69.03,59.8 0,0 -60.96,72.9 -57.98,77.7 16.13,26.2 71.52,-12.4 97.28,-43.5 26.39,-11.8 75.22,-54.9 75.22,-54.9 0,0 117.72,-65.7 126.8,-49.6 3.86,6.8 -63.76,55.6 -122.84,113.4 -54.85,53.8 -101.71,116.7 -93,128.7 14.77,20.4 81.88,-33 81.88,-33"
         style="fill:#f8a492;fill-opacity:1;fill-rule:nonzero;stroke:none"
         id="path1218" /><path
         d="m 6343.39,7306.4 58.04,-286.8 1457.89,-1326.1 -1043.57,-1056.1 281.8,-287.9 c 0,0 1541.25,1131.7 1596.81,1280 85.52,228.4 -1104.83,1740.9 -1104.83,1740.9 l -1246.14,-64"
         style="fill:#b75742;fill-opacity:1;fill-rule:nonzero;stroke:none"
         id="path1220" /><path
         d="m 5332.47,3838 c 0,0 -294.12,-320.5 -351.85,-399.4 -83.17,-113.6 537.91,-281.3 461.05,-148.3 -17.68,30.6 -68.38,133.6 -70.59,143.7 -11.8,54.1 137.59,200 137.59,200 l -176.2,204"
         style="fill:#f7a491;fill-opacity:1;fill-rule:nonzero;stroke:none"
         id="path1222" /><path
         d="m 5769.08,3300.5 -404.8,148 c 0,0 -152.99,-69.6 -386.28,-12.6 0,0 -82.3,-115.6 -87.45,-263.3 0,0 767.26,-97.9 980.78,-36.8 213.52,61.1 -102.25,164.7 -102.25,164.7"
         style="fill:#f7cc7f;fill-opacity:1;fill-rule:nonzero;stroke:none"
         id="path1224" /><path
         d="M 6393.3,7173.5 6458.77,5364 5165.18,3777.9 5515.14,3586.3 c 0,0 1430.98,1228.2 1588.11,1570.3 97.46,212.2 425.37,2130.3 425.37,2130.3 L 6393.3,7173.5"
         style="fill:#f47458;fill-opacity:1;fill-rule:nonzero;stroke:none"
         id="path1226" /><path
         d="m 7569.27,7322 c -118.58,267.6 -104.86,2186.1 -566.33,2635.5 -162.36,-27.5 -278.16,-42.8 -305.26,-50 -24.08,-197.6 -50.57,-922.8 -66.84,-1587.5 -10.84,-442.7 0.35,-907.1 -54.19,-1151.9 -33.81,-151.7 1100.95,-90.6 992.62,153.9"
         style="fill:#fae0b2;fill-opacity:1;fill-rule:nonzero;stroke:none"
         id="path1228" /><path
         d="M 6320.14,9808.5 C 6190.6,9779 6095.21,9758.3 5925.42,9507.4 5762.86,9267.3 5401.93,8697.5 5401.93,8697.5 l -950.67,422.3 -44.44,-481.5 c 0,0 1075.48,-559.1 1227.22,-508.7 151.74,50.4 578.36,674 609.91,716.1 7.41,9.9 -35.81,-666.1 -35.81,-774.1 0,-107.9 -206.18,-1048.2 -206.18,-1048.2 0,0 523.16,-128.8 625.27,105.1 313.05,717.1 72.75,2779.7 72.75,2779.7 0,0 -286.63,-78.4 -379.84,-99.7"
         style="fill:#466eb6;fill-opacity:1;fill-rule:nonzero;stroke:none"
         id="path1230" /><path
         d="m 8272.85,11861.8 c -39.95,33.4 -57.38,113.6 -63.97,165.2 l -17.78,68.3 c 16.21,6.7 333.25,51.8 428.87,54.3 9.31,-30.3 13.94,-55.9 10.97,-72.2 -14.23,-78.1 -114.01,-585.5 -114.01,-585.5 l -273.04,-5.4 c 0,0 59.39,300.8 28.96,375.3"
         style="fill:#f7a491;fill-opacity:1;fill-rule:nonzero;stroke:none"
         id="path1232" /><path
         d="m 7109.92,9845.2 c 0,0 187.34,-533.1 341.5,-456.3 154.16,76.8 1020.26,959.8 1028.82,1002.4 8.57,42.7 68.52,1126.5 68.52,1126.5 l -342.58,68.2 -196.99,-887.5 c 0,0 -633.77,-605.8 -762.24,-665.6 -128.46,-59.7 -137.03,-187.7 -137.03,-187.7"
         style="fill:#466eb6;fill-opacity:1;fill-rule:nonzero;stroke:none"
         id="path1234" /><path
         d="m 7615.63,7193.7 c 103.71,0 141.97,14.4 211.05,35.1 0,0 -197.47,1113.1 -312.3,2216.9 -45.35,436 -87.45,614.8 -267.34,583.2 -52.02,-9.1 -192.92,-62.8 -244.08,-71.4 452.04,-1279 453.61,-2263.4 517.6,-2548.9 32.1,-143.3 60.08,-215.8 95.07,-214.9"
         style="fill:#466eb6;fill-opacity:1;fill-rule:nonzero;stroke:none"
         id="path1236" /><path
         d="m 6955.26,10150.7 47.37,-193.2 c 0,0 10.8,-168.3 -67.29,-183.4 -94.17,-18.2 -234.11,122.7 -234.11,122.7 l -81.05,545 335.08,-291.1"
         style="fill:#f7a491;fill-opacity:1;fill-rule:nonzero;stroke:none"
         id="path1238" /><path
         d="m 6955.26,10150.7 47.37,-193.2 c 0,0 10.8,-168.3 -67.29,-183.4 -94.17,-18.2 -234.11,122.7 -234.11,122.7 l -81.05,545 335.08,-291.1"
         style="fill:#f7a491;fill-opacity:1;fill-rule:nonzero;stroke:none"
         id="path1240" /><path
         d="m 6620.98,10439.3 334.28,-288.6 35.39,-144.3 c -127.78,30.7 -309.95,171.3 -369.67,432.9"
         style="fill:#f47458;fill-opacity:1;fill-rule:nonzero;stroke:none"
         id="path1242" /><path
         d="m 6956.39,10940.6 c 80.83,0.3 153.6,-55.8 182.02,-136.5 23.57,-66.8 53.74,-166 72.94,-279.7 35.38,-209.6 -83.97,-401.5 -187.81,-416.8 -103.83,-15.3 -351.19,53.5 -405.89,350.4 -23.45,127.2 -54.3,294.1 50.36,381.8 81.42,68.2 195.46,100.6 288.38,100.8"
         style="fill:#f7a491;fill-opacity:1;fill-rule:nonzero;stroke:none"
         id="path1244" /><path
         d="m 6651.39,10231.8 c 0,0 -366.05,326.2 -382.03,581 -15.98,254.9 219.39,391.4 420.65,398.5 90.92,3.2 152.43,-0.9 246.31,-12.7 201.64,-25.4 332.32,-114.8 286.32,-280 -61.75,-221.8 -480.25,-34.7 -565.81,-103.5 -70.61,-56.9 43.86,-193.5 -24.74,-245.6 -64.47,-49 -31.63,-32.4 -10.28,-125.6 21.34,-93.2 29.58,-212.1 29.58,-212.1"
         style="fill:#184655;fill-opacity:1;fill-rule:nonzero;stroke:none"
         id="path1246" /><path
         d="m 6510.25,10527.3 c 9.08,-61.1 46.41,-106.2 83.39,-100.7 36.98,5.4 59.61,59.4 50.53,120.4 -9.07,61.1 -46.4,106.2 -83.38,100.7 -36.99,-5.4 -59.61,-59.4 -50.54,-120.4"
         style="fill:#f7a491;fill-opacity:1;fill-rule:nonzero;stroke:none"
         id="path1248" /><path
         d="m 8291.42,12096.1 c 0,0 59.27,-33.6 118.22,-111.7 0,0 154.37,98.9 148.97,130.3 -7.17,41.6 -164.97,-35.6 -164.97,-35.6 l -102.22,17"
         style="fill:#f47458;fill-opacity:1;fill-rule:nonzero;stroke:none"
         id="path1250" /><path
         d="m 4310.98,14145.6 4168.16,-2146.1 c 224.3,-115.5 507.86,-11.5 633.36,232.2 l 1064.4,2067.3 c 125.5,243.7 45.4,534.9 -178.86,650.4 l -4168.17,2146.2 c -224.29,115.5 -507.86,11.5 -633.36,-232.3 L 4132.09,14796.1 c -125.5,-243.7 -45.41,-535 178.89,-650.5"
         style="fill:#96d9c9;fill-opacity:1;fill-rule:nonzero;stroke:none"
         id="path1252" /><path
         d="m 9136.43,12278.2 -4980.42,2564.3 322.91,627.2 4980.42,-2564.4 -322.91,-627.1"
         style="fill:#355389;fill-opacity:1;fill-rule:nonzero;stroke:none"
         id="path1254" /><path
         d="m 6531.24,15625.2 -1097.56,566.4 314.14,608.8 1097.56,-566.4 -314.14,-608.8"
         style="fill:#f7cc7f;fill-opacity:1;fill-rule:nonzero;stroke:none"
         id="path1256" /><path
         d="m 8290.25,12099.4 c -7.25,19.6 -21.53,47 -14.51,57.7 44.45,67.9 -3.46,141.7 -35.8,84 -18.77,-33.6 -51.62,-107.4 -48.85,-145.8 2.02,-27.8 30.23,-133.8 30.23,-133.8 0,0 110.05,26.8 68.93,137.9"
         style="fill:#f7a491;fill-opacity:1;fill-rule:nonzero;stroke:none"
         id="path1258" /><path
         d="m 20846.6,4957.9 c 0,0 -25.6,-319.6 -4.8,-423.4 11.1,-55.6 73.2,-170.1 44.7,-222.4 -28.4,-52.3 -61,-65.4 -61,-65.4 l -738,-11.7 c -40.2,-0.6 -13.7,24.8 18.8,48.2 53,38.4 95.8,63.8 265.3,144.4 11.1,5.3 51.3,30.4 65.8,39.1 36.8,22.1 73.8,56.9 105.6,91.7 53,58.1 57.6,339.5 57.6,339.5 l 246,60"
         style="fill:#f7a491;fill-opacity:1;fill-rule:nonzero;stroke:none"
         id="path1260" /><path
         d="m 20269.8,9205.1 c 0,0 -317.2,156.4 -256.2,-183.7 61,-340.2 525.8,-4165 525.8,-4165 l 435.3,-24.1 c 0,0 55.6,1275.2 43.4,1458.3 -12.2,183.1 -84.3,466.4 -84.3,466.4 l -36.9,1131.3 -410.7,1396.8 -216.4,-80"
         style="fill:#355389;fill-opacity:1;fill-rule:nonzero;stroke:none"
         id="path1262" /><path
         d="m 20437.5,4466.8 c 195.2,-49.3 339.5,-15.8 420.2,16.2 20.8,-58 48.4,-130.8 33.8,-172.7 -17.9,-51.4 -41.3,-74.3 -63.8,-74.8 -178.3,-4.6 -655.2,0.3 -791.2,-1.4 -19,-0.3 -29.4,21.5 -17.2,35.9 33.7,39.6 403.7,188 418.2,196.8"
         style="fill:#3c8f7c;fill-opacity:1;fill-rule:nonzero;stroke:none"
         id="path1264" /><path
         d="m 20013.6,11503.7 c 0,0 -268.2,516.1 -309.8,705.5 -41.6,189.5 -185.7,1143.5 -173.6,1205 12.2,61.4 240,209.3 211.9,261.5 -28.1,52.1 -245.2,52.3 -294.9,47.8 -49.7,-4.5 -149.5,-33.4 -192.3,-68.7 -42.7,-35.2 48.1,-1178.6 75.2,-1424.7 27.1,-246.2 360.4,-1004.2 360.4,-1004.2 l 323.1,277.8"
         style="fill:#f7a491;fill-opacity:1;fill-rule:nonzero;stroke:none"
         id="path1266" /><path
         d="m 22103.3,7481.8 c 0,0 221.2,232 270.5,325.7 26.3,50.2 50.2,178.2 105.3,200.9 55.1,22.7 88.6,12.4 88.6,12.4 l 580.5,-455.9 c 31.7,-24.9 -5,-27.9 -44.9,-25.7 -65.4,3.7 -114.7,10.9 -297.1,55.1 -11.9,2.9 -59,8.7 -75.7,11.1 -42.5,6 -93.1,2.3 -139.8,-4.7 -77.7,-11.7 -258.6,-227.3 -258.6,-227.3 l -228.8,108.4"
         style="fill:#f7a491;fill-opacity:1;fill-rule:nonzero;stroke:none"
         id="path1268" /><path
         d="m 22730.4,7605.4 c -120.6,161.2 -253.7,226.1 -336.6,252.1 20.4,58.2 42.7,134.2 80.5,157.6 46.3,28.6 78.2,22.7 96.1,8.9 141.3,-108.7 511.3,-406.2 618,-490.5 14.9,-11.8 9.3,-35.3 -9.2,-38.8 -51.2,-9.5 -432,108.3 -448.8,110.7"
         style="fill:#3c8f7c;fill-opacity:1;fill-rule:nonzero;stroke:none"
         id="path1270" /><path
         d="m 22108.5,11660.9 c -137.7,288.8 -442.8,447.8 -738.3,370.9 -106,143.4 -270,243.8 -440.6,268 -336.6,47.7 -770.9,-115.6 -726.6,-466.9 -106.3,-245.8 -80.3,-584.4 132.1,-750.4 -39,-323.1 284.9,-609.6 668.2,-570.9 154.3,-212.9 422.4,-337.8 673.2,-289.2 60.2,11.7 151.6,33.6 167.3,30.9 -19.7,2.2 437.2,-297 752.3,235.8 321.5,543.6 4.9,1151.4 -487.6,1171.8"
         style="fill:#184655;fill-opacity:1;fill-rule:nonzero;stroke:none"
         id="path1272" /><path
         d="m 20142.1,9081.8 c 0,0 711.4,316.3 722.6,280.3 89.2,-287.3 366.7,-194.6 531.4,-700.6 69,-211.9 139.9,-1621.4 139.9,-1621.4 0,0 280.5,232.8 681.4,639.6 30.7,31.2 332.1,-255.4 332.1,-255.4 -795.7,-1075.1 -1139,-1131.2 -1271.8,-1071 -277.1,125.6 -862,1883.3 -861,1883.1 -70.3,136.8 -274.6,845.4 -274.6,845.4"
         style="fill:#466eb6;fill-opacity:1;fill-rule:nonzero;stroke:none"
         id="path1274" /><path
         d="m 21321.5,11067.4 c 0,0 1028.3,1.3 1248.5,14 199.2,11.5 989.6,-8.6 1020.4,-5 31,3.5 235.2,349.5 269.2,312.4 33.9,-37.2 -113.7,-171.6 -68,-206.5 45.6,-34.8 536.1,43.3 529.6,7 -12.2,-67.8 -298.3,-59.2 -298,-91.9 0.2,-32.8 299.5,18.3 319.7,-36.1 20.3,-54.3 -287.8,-22.1 -300.1,-46.4 -12.3,-24.3 285.8,-68.7 255.3,-119.3 -16.6,-27.4 -264.1,45.9 -262.9,8.5 1.2,-37.5 181.8,-122.7 159.7,-152.5 -22.2,-29.8 -141.8,91.6 -246.6,93.1 -104.7,1.5 -179.8,56.1 -347,10.2 -82.6,-22.6 -713.1,-99.7 -1245.9,-145.2 -546.2,-46.7 -993.9,-61.5 -993.9,-61.5 l -40,419.2"
         style="fill:#f7a491;fill-opacity:1;fill-rule:nonzero;stroke:none"
         id="path1276" /><path
         d="m 19796.7,10340.4 c -13.6,165.1 18.9,292.3 26.3,347.1 -49.9,171.5 -156.2,537.3 -194.4,609.2 0,0 179.1,344.1 362.3,341.7 0,0 187.2,-421.9 331.9,-497.3 2.1,0.5 51.2,-21.9 72.8,-21.8 139.7,1 628,15.8 719.1,17.5 l -51.3,-692.7 c -353.8,-693.6 -258,-1057.5 -123.4,-1192.1 63.4,-63.3 -882.9,-320.3 -926.4,-230.6 -51.4,105.7 -189.3,985.3 -216.9,1319"
         style="fill:#f7cc7f;fill-opacity:1;fill-rule:nonzero;stroke:none"
         id="path1278" /><path
         d="m 20866.6,11110.6 c 90.1,43 741.8,21.5 741.8,21.5 0,0 91.1,-453.9 17.5,-563 0,0 -582.7,-86.7 -566.2,-134.5 l -193.1,676"
         style="fill:#f7cc7f;fill-opacity:1;fill-rule:nonzero;stroke:none"
         id="path1280" /><path
         d="m 20695.8,11402.2 c 0,0 -11.5,-247.5 0.1,-350.6 11.6,-103.1 -105.7,-344.8 -324.2,-349 -218.5,-4.2 -32.1,231.9 -12.9,333.4 19.1,101.4 42,498.6 42,498.6 l 295,-132.4"
         style="fill:#f7a491;fill-opacity:1;fill-rule:nonzero;stroke:none"
         id="path1282" /><path
         d="m 20400.8,11534.6 c 0,0 -5.3,-92.2 -12.9,-199.1 68.8,-82.2 174.8,-124.2 303.5,-74.2 1.4,76.7 4.4,140.9 4.4,140.9 l -295,132.4"
         style="fill:#f47458;fill-opacity:1;fill-rule:nonzero;stroke:none"
         id="path1284" /><path
         d="m 20713.9,12139.8 c 0,0 123.7,-37 193.1,-160.8 69.5,-123.7 98.7,-476 -168.1,-621.1 -266.8,-145.2 -449.7,98.7 -437.5,323.5 12.2,224.7 80.9,521 412.5,458.4"
         style="fill:#f7a491;fill-opacity:1;fill-rule:nonzero;stroke:none"
         id="path1286" /><path
         d="m 20247.7,11755.7 c 18.1,-55.7 59,-92.3 91.5,-81.8 32.4,10.5 44.1,64.2 26,119.9 -18.1,55.6 -59,92.3 -91.5,81.7 -32.4,-10.5 -44.1,-64.2 -26,-119.8"
         style="fill:#f7a491;fill-opacity:1;fill-rule:nonzero;stroke:none"
         id="path1288" /><path
         d="m 20676.7,12149.7 c 0,0 135.4,-370.4 274,-412.2 138.5,-41.8 124,-222.5 124,-222.5 0,0 25.7,417.9 -99.7,522.7 -125.3,104.9 -298.3,112 -298.3,112"
         style="fill:#184655;fill-opacity:1;fill-rule:nonzero;stroke:none"
         id="path1290" /><path
         d="m 20889.6,11666.7 c -22.5,-57.1 -9.5,-115.7 29.1,-131 38.5,-15.2 88.1,18.7 110.6,75.8 22.6,57.1 9.6,115.7 -29,130.9 -38.6,15.3 -88.1,-18.6 -110.7,-75.7"
         style="fill:#f7a491;fill-opacity:1;fill-rule:nonzero;stroke:none"
         id="path1292" /><path
         d="m 19216.2,13566.8 c 0,0 301.3,-13.2 336.7,-13.2 35.3,0 138.3,106.5 138.3,106.5 l -475,-93.3"
         style="fill:#f47458;fill-opacity:1;fill-rule:nonzero;stroke:none"
         id="path1294" /><path
         d="m 20202.2,15395.2 c 371.1,-528.7 243.3,-1258.2 -285.4,-1629.2 -528.7,-371.1 -1258.1,-243.3 -1629.2,285.4 -371.1,528.7 -243.3,1258.2 285.4,1629.2 528.8,371.1 1258.2,243.3 1629.2,-285.4"
         style="fill:#fae0b2;fill-opacity:1;fill-rule:nonzero;stroke:none"
         id="path1296" /><path
         d="m 20048.2,15287.1 c 311.4,-443.7 204.2,-1055.7 -239.5,-1367.1 -443.7,-311.4 -1055.7,-204.2 -1367.1,239.5 -311.4,443.7 -204.1,1055.7 239.5,1367.1 443.7,311.4 1055.8,204.2 1367.1,-239.5"
         style="fill:#f7cc7f;fill-opacity:1;fill-rule:nonzero;stroke:none"
         id="path1298" /><path
         d="m 19358.2,14032.9 -42.8,158.2 c -72.3,-16.1 -146,-21.6 -208.9,-18.4 -52.5,2.8 -93.9,45.8 -94.5,98.3 l -0.1,6.4 c -0.8,57.9 47.8,104.6 105.6,100.8 58.9,-3.8 123.8,0.1 189,17.7 94.9,25.7 149.9,79.9 131.9,146.5 -17.1,63.2 -81.2,88.8 -215.6,97.1 -194.4,11.8 -338.4,62.1 -382.1,223.6 -39.6,146.5 32.5,289.3 201.2,372.5 l -42.8,158.1 163.2,44.1 39.6,-146.5 c 61.3,13.7 113.2,19 157.9,19.2 54.5,0.2 98.8,-43.9 99.5,-98.5 v 0 c 0.8,-56.3 -45.3,-102.2 -101.7,-100.9 -42.3,0.9 -93.1,-3 -151.9,-18.8 -108.2,-29.3 -130.5,-85.4 -117.9,-132 14.8,-54.9 82.6,-74.1 238.5,-89.1 217,-16.4 321.7,-86.3 362.2,-236.2 40.1,-148.1 -30.6,-303 -213.1,-388.1 l 46,-169.8 -163.2,-44.2"
         style="fill:#ffffff;fill-opacity:1;fill-rule:nonzero;stroke:none"
         id="path1300" /><path
         d="m 19552.9,13553.6 124.3,111.8 c 0,0 -58.7,70.2 -34.3,83.7 39.7,21.9 107.6,-62.9 101.6,-83.5 -6.1,-20.6 -79.1,-87 -79.1,-87 l -112.5,-25"
         style="fill:#f7a491;fill-opacity:1;fill-rule:nonzero;stroke:none"
         id="path1302" /></g></g></svg>
