<?xml version="1.0" encoding="UTF-8" standalone="no"?>
<svg
   xmlns:dc="http://purl.org/dc/elements/1.1/"
   xmlns:cc="http://creativecommons.org/ns#"
   xmlns:rdf="http://www.w3.org/1999/02/22-rdf-syntax-ns#"
   xmlns:svg="http://www.w3.org/2000/svg"
   xmlns="http://www.w3.org/2000/svg"
   xmlns:sodipodi="http://sodipodi.sourceforge.net/DTD/sodipodi-0.dtd"
   xmlns:inkscape="http://www.inkscape.org/namespaces/inkscape"
   version="1.1"
   id="Capa_1"
   x="0px"
   y="0px"
   viewBox="0 0 436.76256 471.2"
   xml:space="preserve"
   sodipodi:docname="sair.svg"
   width="436.76257"
   height="471.20001"
   inkscape:version="1.0.2 (e86c870879, 2021-01-15)"><metadata
   id="metadata45"><rdf:RDF><cc:Work
       rdf:about=""><dc:format>image/svg+xml</dc:format><dc:type
         rdf:resource="http://purl.org/dc/dcmitype/StillImage" /></cc:Work></rdf:RDF></metadata><defs
   id="defs43" /><sodipodi:namedview
   pagecolor="#ffffff"
   bordercolor="#666666"
   borderopacity="1"
   objecttolerance="10"
   gridtolerance="10"
   guidetolerance="10"
   inkscape:pageopacity="0"
   inkscape:pageshadow="2"
   inkscape:window-width="1600"
   inkscape:window-height="871"
   id="namedview41"
   showgrid="false"
   inkscape:zoom="1.1651103"
   inkscape:cx="218.38101"
   inkscape:cy="235.60001"
   inkscape:window-x="0"
   inkscape:window-y="0"
   inkscape:window-maximized="1"
   inkscape:current-layer="Capa_1" />
<g
   id="g8"
   style="fill:#ffffff"
   transform="translate(-17.219)">
	<g
   id="g6"
   style="fill:#ffffff">
		<path
   d="m 227.619,444.2 h -122.9 c -33.4,0 -60.5,-27.2 -60.5,-60.5 V 87.5 c 0,-33.4 27.2,-60.5 60.5,-60.5 h 124.9 c 7.5,0 13.5,-6 13.5,-13.5 0,-7.5 -6,-13.5 -13.5,-13.5 h -124.9 c -48.3,0 -87.5,39.3 -87.5,87.5 v 296.2 c 0,48.3 39.3,87.5 87.5,87.5 h 122.9 c 7.5,0 13.5,-6 13.5,-13.5 0,-7.5 -6.1,-13.5 -13.5,-13.5 z"
   id="path2"
   style="fill:#ffffff" />
		<path
   d="m 450.019,226.1 -85.8,-85.8 c -5.3,-5.3 -13.8,-5.3 -19.1,0 -5.3,5.3 -5.3,13.8 0,19.1 l 62.8,62.8 h -273.9 c -7.5,0 -13.5,6 -13.5,13.5 0,7.5 6,13.5 13.5,13.5 h 273.9 l -62.8,62.8 c -5.3,5.3 -5.3,13.8 0,19.1 2.6,2.6 6.1,4 9.5,4 3.4,0 6.9,-1.3 9.5,-4 l 85.8,-85.8 c 5.4,-5.4 5.4,-14 0.1,-19.2 z"
   id="path4"
   style="fill:#ffffff" />
	</g>
</g>
<g
   id="g10"
   style="fill:#ffffff"
   transform="translate(-17.219)">
</g>
<g
   id="g12"
   style="fill:#ffffff"
   transform="translate(-17.219)">
</g>
<g
   id="g14"
   style="fill:#ffffff"
   transform="translate(-17.219)">
</g>
<g
   id="g16"
   style="fill:#ffffff"
   transform="translate(-17.219)">
</g>
<g
   id="g18"
   style="fill:#ffffff"
   transform="translate(-17.219)">
</g>
<g
   id="g20"
   style="fill:#ffffff"
   transform="translate(-17.219)">
</g>
<g
   id="g22"
   style="fill:#ffffff"
   transform="translate(-17.219)">
</g>
<g
   id="g24"
   style="fill:#ffffff"
   transform="translate(-17.219)">
</g>
<g
   id="g26"
   style="fill:#ffffff"
   transform="translate(-17.219)">
</g>
<g
   id="g28"
   style="fill:#ffffff"
   transform="translate(-17.219)">
</g>
<g
   id="g30"
   style="fill:#ffffff"
   transform="translate(-17.219)">
</g>
<g
   id="g32"
   style="fill:#ffffff"
   transform="translate(-17.219)">
</g>
<g
   id="g34"
   style="fill:#ffffff"
   transform="translate(-17.219)">
</g>
<g
   id="g36"
   style="fill:#ffffff"
   transform="translate(-17.219)">
</g>
<g
   id="g38"
   style="fill:#ffffff"
   transform="translate(-17.219)">
</g>
<path
   style="fill:#ffffff;stroke-width:0.858288"
   d="M 74.617797,469.8265 C 55.299138,467.01205 33.668878,454.85819 21.192695,439.80739 11.091164,427.62129 4.37274,413.12452 1.761621,397.87973 0.521351,390.63853 0.3759,373.60501 0.3759,235.60001 0.3759,97.594998 0.521351,80.561487 1.761621,73.320281 8.036534,36.684762 36.541704,8.1138744 73.22822,1.6889164 79.147853,0.6522033 92.36935,0.43164393 147.89926,0.44326309 l 67.47774,0.0141188 3.3438,1.91702841 c 8.497,4.8713954 8.66812,16.9965017 0.31177,22.0914287 -2.72321,1.660362 -4.46769,1.706194 -65.88144,1.730875 -34.69628,0.01395 -66.78135,0.385195 -71.300142,0.825003 -25.75282,2.506489 -46.84838,20.429143 -53.178644,45.180239 -1.65023,6.45234 -1.689521,10.252293 -1.689521,163.398054 0,153.14575 0.03929,156.94571 1.689521,163.39805 6.330264,24.75109 27.425824,42.67374 53.178644,45.18024 4.518792,0.4398 36.172042,0.80961 70.340552,0.82179 61.60061,0.022 62.14916,0.0373 65.04198,1.82521 8.08861,4.99904 8.06845,15.69135 -0.041,21.74682 -2.34331,1.74979 -3.12596,1.77092 -69.89742,1.88711 -37.14014,0.0646 -69.844924,-0.2201 -72.677273,-0.63273 z"
   id="path47" /><path
   style="fill:#ffffff;stroke-width:0.858288"
   d="m 331.02344,332.59116 c -5.60798,-3.41922 -7.95127,-11.41215 -4.98344,-16.99844 0.67723,-1.27472 15.54706,-16.6062 33.04408,-34.06996 17.49703,-17.46377 31.81278,-32.04393 31.81278,-32.40037 0,-0.35644 -62.51207,-0.64807 -138.91571,-0.64807 H 113.06546 l -2.83745,-1.93114 c -4.42217,-3.00971 -6.28538,-6.08418 -6.28538,-10.37152 0,-4.33894 2.14729,-8.55235 5.71324,-11.21053 l 2.42314,-1.8063 139.40892,-0.22223 c 76.67491,-0.12223 139.40893,-0.51042 139.40893,-0.86263 0,-0.35223 -14.31575,-14.92895 -31.81278,-32.39271 -17.49702,-17.46377 -32.36685,-32.79525 -33.04408,-34.06997 -1.76404,-3.32042 -1.5385,-9.184 0.48064,-12.49564 3.94096,-6.46371 11.47391,-8.02199 18.07521,-3.73909 2.09867,1.3616 23.18929,21.92833 46.86804,45.70382 47.40618,47.59987 46.41093,46.37797 44.12311,54.17135 -0.92439,3.1489 -6.95814,9.55832 -44.12311,46.87033 -23.67875,23.77244 -44.55859,44.33916 -46.39964,45.70383 -4.13189,3.06275 -9.77236,3.37178 -14.04081,0.76927 z"
   id="path49" /></svg>
